solid OpenSCAD_Model
  facet normal -1 0 0
    outer loop
      vertex 0 0 0
      vertex 0 800 400
      vertex 0 800 0
    endloop
  endfacet
  facet normal -1 -0 0
    outer loop
      vertex 0 800 400
      vertex 0 0 0
      vertex 0 0 400
    endloop
  endfacet
  facet normal 0 0 1
    outer loop
      vertex 600 800 400
      vertex 593.5 50 400
      vertex 600 0 400
    endloop
  endfacet
  facet normal 0 0 1
    outer loop
      vertex 600 800 400
      vertex 593.378 50.7725 400
      vertex 593.5 50 400
    endloop
  endfacet
  facet normal 0 0 1
    outer loop
      vertex 600 800 400
      vertex 593.023 51.4695 400
      vertex 593.378 50.7725 400
    endloop
  endfacet
  facet normal 0 0 1
    outer loop
      vertex 600 800 400
      vertex 592.469 52.0225 400
      vertex 593.023 51.4695 400
    endloop
  endfacet
  facet normal 0 0 1
    outer loop
      vertex 600 800 400
      vertex 591.773 52.3776 400
      vertex 592.469 52.0225 400
    endloop
  endfacet
  facet normal 0 0 1
    outer loop
      vertex 600 800 400
      vertex 591 52.5 400
      vertex 591.773 52.3776 400
    endloop
  endfacet
  facet normal 0 0 1
    outer loop
      vertex 600 800 400
      vertex 590.227 52.3776 400
      vertex 591 52.5 400
    endloop
  endfacet
  facet normal 0 0 1
    outer loop
      vertex 600 800 400
      vertex 589.531 52.0225 400
      vertex 590.227 52.3776 400
    endloop
  endfacet
  facet normal 0 0 1
    outer loop
      vertex 10.4695 52.0225 400
      vertex 589.531 52.0225 400
      vertex 600 800 400
    endloop
  endfacet
  facet normal 0 0 1
    outer loop
      vertex 589.531 52.0225 400
      vertex 10.4695 52.0225 400
      vertex 588.977 51.4695 400
    endloop
  endfacet
  facet normal 0 -0 1
    outer loop
      vertex 11.0225 51.4695 400
      vertex 588.977 51.4695 400
      vertex 10.4695 52.0225 400
    endloop
  endfacet
  facet normal 0 0 1
    outer loop
      vertex 588.977 51.4695 400
      vertex 11.0225 51.4695 400
      vertex 588.622 50.7725 400
    endloop
  endfacet
  facet normal 0 0 1
    outer loop
      vertex 588.5 50 400
      vertex 11.3776 50.7725 400
      vertex 11.5 50 400
    endloop
  endfacet
  facet normal 0 0 1
    outer loop
      vertex 588.622 50.7725 400
      vertex 11.3776 50.7725 400
      vertex 588.5 50 400
    endloop
  endfacet
  facet normal 0 -0 1
    outer loop
      vertex 11.3776 50.7725 400
      vertex 588.622 50.7725 400
      vertex 11.0225 51.4695 400
    endloop
  endfacet
  facet normal -0 0 1
    outer loop
      vertex 0 800 400
      vertex 10.4695 52.0225 400
      vertex 600 800 400
    endloop
  endfacet
  facet normal 0 0 1
    outer loop
      vertex 10.4695 52.0225 400
      vertex 0 800 400
      vertex 9.77254 52.3776 400
    endloop
  endfacet
  facet normal 0 0 1
    outer loop
      vertex 9.77254 52.3776 400
      vertex 0 800 400
      vertex 9 52.5 400
    endloop
  endfacet
  facet normal 0 0 1
    outer loop
      vertex 9 52.5 400
      vertex 0 800 400
      vertex 8.22746 52.3776 400
    endloop
  endfacet
  facet normal 0 0 1
    outer loop
      vertex 8.22746 52.3776 400
      vertex 0 800 400
      vertex 7.53054 52.0225 400
    endloop
  endfacet
  facet normal 0 0 1
    outer loop
      vertex 6.62236 50.7725 400
      vertex 0 800 400
      vertex 6.5 50 400
    endloop
  endfacet
  facet normal 0 0 1
    outer loop
      vertex 6.97746 51.4695 400
      vertex 0 800 400
      vertex 6.62236 50.7725 400
    endloop
  endfacet
  facet normal 0 0 1
    outer loop
      vertex 7.53054 52.0225 400
      vertex 0 800 400
      vertex 6.97746 51.4695 400
    endloop
  endfacet
  facet normal -0 0 1
    outer loop
      vertex 593.378 49.2275 400
      vertex 600 0 400
      vertex 593.5 50 400
    endloop
  endfacet
  facet normal -0 0 1
    outer loop
      vertex 593.023 48.5305 400
      vertex 600 0 400
      vertex 593.378 49.2275 400
    endloop
  endfacet
  facet normal -0 0 1
    outer loop
      vertex 592.469 47.9775 400
      vertex 600 0 400
      vertex 593.023 48.5305 400
    endloop
  endfacet
  facet normal -0 0 1
    outer loop
      vertex 591.773 47.6224 400
      vertex 600 0 400
      vertex 592.469 47.9775 400
    endloop
  endfacet
  facet normal -0 0 1
    outer loop
      vertex 591 47.5 400
      vertex 600 0 400
      vertex 591.773 47.6224 400
    endloop
  endfacet
  facet normal 0 0 1
    outer loop
      vertex 590.227 47.6224 400
      vertex 600 0 400
      vertex 591 47.5 400
    endloop
  endfacet
  facet normal 0 0 1
    outer loop
      vertex 589.531 47.9775 400
      vertex 600 0 400
      vertex 590.227 47.6224 400
    endloop
  endfacet
  facet normal 0 0 1
    outer loop
      vertex 588.977 48.5305 400
      vertex 600 0 400
      vertex 589.531 47.9775 400
    endloop
  endfacet
  facet normal 0 0 1
    outer loop
      vertex 588.622 49.2275 400
      vertex 600 0 400
      vertex 588.977 48.5305 400
    endloop
  endfacet
  facet normal -0 0 1
    outer loop
      vertex 11.5 50 400
      vertex 588.622 49.2275 400
      vertex 588.5 50 400
    endloop
  endfacet
  facet normal 0 0 1
    outer loop
      vertex 11.3776 49.2275 400
      vertex 588.622 49.2275 400
      vertex 11.5 50 400
    endloop
  endfacet
  facet normal 0 0 1
    outer loop
      vertex 588.622 49.2275 400
      vertex 11.3776 49.2275 400
      vertex 600 0 400
    endloop
  endfacet
  facet normal 0 0 1
    outer loop
      vertex 0 0 400
      vertex 11.3776 49.2275 400
      vertex 11.0225 48.5305 400
    endloop
  endfacet
  facet normal 0 0 1
    outer loop
      vertex 0 0 400
      vertex 11.0225 48.5305 400
      vertex 10.4695 47.9775 400
    endloop
  endfacet
  facet normal 0 0 1
    outer loop
      vertex 0 0 400
      vertex 10.4695 47.9775 400
      vertex 9.77254 47.6224 400
    endloop
  endfacet
  facet normal 0 0 1
    outer loop
      vertex 0 0 400
      vertex 9.77254 47.6224 400
      vertex 9 47.5 400
    endloop
  endfacet
  facet normal 0 0 1
    outer loop
      vertex 11.3776 49.2275 400
      vertex 0 0 400
      vertex 600 0 400
    endloop
  endfacet
  facet normal 0 0 1
    outer loop
      vertex 8.22746 47.6224 400
      vertex 0 0 400
      vertex 9 47.5 400
    endloop
  endfacet
  facet normal 0 0 1
    outer loop
      vertex 7.53054 47.9775 400
      vertex 0 0 400
      vertex 8.22746 47.6224 400
    endloop
  endfacet
  facet normal 0 0 1
    outer loop
      vertex 6.97746 48.5305 400
      vertex 0 0 400
      vertex 7.53054 47.9775 400
    endloop
  endfacet
  facet normal 0 0 1
    outer loop
      vertex 6.62236 49.2275 400
      vertex 0 0 400
      vertex 6.97746 48.5305 400
    endloop
  endfacet
  facet normal 0 0 1
    outer loop
      vertex 6.5 50 400
      vertex 0 0 400
      vertex 6.62236 49.2275 400
    endloop
  endfacet
  facet normal 0 0 1
    outer loop
      vertex 0 0 400
      vertex 6.5 50 400
      vertex 0 800 400
    endloop
  endfacet
  facet normal 1 -0 0
    outer loop
      vertex 18 18 382
      vertex 18 782 0
      vertex 18 782 382
    endloop
  endfacet
  facet normal 1 0 0
    outer loop
      vertex 18 782 0
      vertex 18 18 382
      vertex 18 18 0
    endloop
  endfacet
  facet normal 0 0 -1
    outer loop
      vertex 600 0 0
      vertex 582 18 0
      vertex 600 800 0
    endloop
  endfacet
  facet normal 0 0 -1
    outer loop
      vertex 600 0 0
      vertex 18 18 0
      vertex 582 18 0
    endloop
  endfacet
  facet normal -0 0 -1
    outer loop
      vertex 18 18 0
      vertex 0 0 0
      vertex 18 782 0
    endloop
  endfacet
  facet normal 0 0 -1
    outer loop
      vertex 0 0 0
      vertex 18 18 0
      vertex 600 0 0
    endloop
  endfacet
  facet normal 0 0 -1
    outer loop
      vertex 582 782 0
      vertex 600 800 0
      vertex 582 18 0
    endloop
  endfacet
  facet normal 0 0 -1
    outer loop
      vertex 18 782 0
      vertex 600 800 0
      vertex 582 782 0
    endloop
  endfacet
  facet normal 0 0 -1
    outer loop
      vertex 18 782 0
      vertex 0 800 0
      vertex 600 800 0
    endloop
  endfacet
  facet normal 0 0 -1
    outer loop
      vertex 0 800 0
      vertex 18 782 0
      vertex 0 0 0
    endloop
  endfacet
  facet normal 0 -1 0
    outer loop
      vertex 0 0 400
      vertex 296 0 212
      vertex 600 0 400
    endloop
  endfacet
  facet normal 0 -1 0
    outer loop
      vertex 0 0 400
      vertex 296 0 200
      vertex 296 0 212
    endloop
  endfacet
  facet normal 0 -1 -0
    outer loop
      vertex 296 0 200
      vertex 0 0 0
      vertex 304 0 200
    endloop
  endfacet
  facet normal 0 -1 0
    outer loop
      vertex 0 0 0
      vertex 296 0 200
      vertex 0 0 400
    endloop
  endfacet
  facet normal 0 -1 0
    outer loop
      vertex 304 0 212
      vertex 600 0 400
      vertex 296 0 212
    endloop
  endfacet
  facet normal 0 -1 0
    outer loop
      vertex 304 0 200
      vertex 600 0 400
      vertex 304 0 212
    endloop
  endfacet
  facet normal 0 -1 0
    outer loop
      vertex 304 0 200
      vertex 600 0 0
      vertex 600 0 400
    endloop
  endfacet
  facet normal 0 -1 0
    outer loop
      vertex 600 0 0
      vertex 304 0 200
      vertex 0 0 0
    endloop
  endfacet
  facet normal 0 1 0
    outer loop
      vertex 600 800 400
      vertex 304 800 212
      vertex 0 800 400
    endloop
  endfacet
  facet normal 0 1 0
    outer loop
      vertex 600 800 400
      vertex 304 800 200
      vertex 304 800 212
    endloop
  endfacet
  facet normal 0 1 0
    outer loop
      vertex 304 800 200
      vertex 600 800 0
      vertex 296 800 200
    endloop
  endfacet
  facet normal 0 1 -0
    outer loop
      vertex 600 800 0
      vertex 304 800 200
      vertex 600 800 400
    endloop
  endfacet
  facet normal 0 1 -0
    outer loop
      vertex 296 800 212
      vertex 0 800 400
      vertex 304 800 212
    endloop
  endfacet
  facet normal 0 1 -0
    outer loop
      vertex 296 800 200
      vertex 0 800 400
      vertex 296 800 212
    endloop
  endfacet
  facet normal 0 1 0
    outer loop
      vertex 296 800 200
      vertex 0 800 0
      vertex 0 800 400
    endloop
  endfacet
  facet normal 0 1 0
    outer loop
      vertex 0 800 0
      vertex 296 800 200
      vertex 600 800 0
    endloop
  endfacet
  facet normal 0.987679 0.156494 0
    outer loop
      vertex 11.5 50 410
      vertex 11.3776 50.7725 400
      vertex 11.3776 50.7725 410
    endloop
  endfacet
  facet normal 0.987679 0.156494 0
    outer loop
      vertex 11.3776 50.7725 400
      vertex 11.5 50 410
      vertex 11.5 50 400
    endloop
  endfacet
  facet normal -0.156486 0.98768 0
    outer loop
      vertex 9 52.5 400
      vertex 8.22746 52.3776 410
      vertex 9 52.5 410
    endloop
  endfacet
  facet normal -0.156486 0.98768 0
    outer loop
      vertex 8.22746 52.3776 410
      vertex 9 52.5 400
      vertex 8.22746 52.3776 400
    endloop
  endfacet
  facet normal 0.156486 -0.98768 0
    outer loop
      vertex 9 47.5 400
      vertex 9.77254 47.6224 410
      vertex 9 47.5 410
    endloop
  endfacet
  facet normal 0.156486 -0.98768 0
    outer loop
      vertex 9.77254 47.6224 410
      vertex 9 47.5 400
      vertex 9.77254 47.6224 400
    endloop
  endfacet
  facet normal 0.453971 -0.891016 0
    outer loop
      vertex 9.77254 47.6224 400
      vertex 10.4695 47.9775 410
      vertex 9.77254 47.6224 410
    endloop
  endfacet
  facet normal 0.453971 -0.891016 0
    outer loop
      vertex 10.4695 47.9775 410
      vertex 9.77254 47.6224 400
      vertex 10.4695 47.9775 400
    endloop
  endfacet
  facet normal -0.453992 -0.891006 0
    outer loop
      vertex 7.53054 47.9775 400
      vertex 8.22746 47.6224 410
      vertex 7.53054 47.9775 410
    endloop
  endfacet
  facet normal -0.453992 -0.891006 -0
    outer loop
      vertex 8.22746 47.6224 410
      vertex 7.53054 47.9775 400
      vertex 8.22746 47.6224 400
    endloop
  endfacet
  facet normal 0.453971 0.891016 -0
    outer loop
      vertex 10.4695 52.0225 400
      vertex 9.77254 52.3776 410
      vertex 10.4695 52.0225 410
    endloop
  endfacet
  facet normal 0.453971 0.891016 0
    outer loop
      vertex 9.77254 52.3776 410
      vertex 10.4695 52.0225 400
      vertex 9.77254 52.3776 400
    endloop
  endfacet
  facet normal 0.891027 0.453951 0
    outer loop
      vertex 11.3776 50.7725 410
      vertex 11.0225 51.4695 400
      vertex 11.0225 51.4695 410
    endloop
  endfacet
  facet normal 0.891027 0.453951 0
    outer loop
      vertex 11.0225 51.4695 400
      vertex 11.3776 50.7725 410
      vertex 11.3776 50.7725 400
    endloop
  endfacet
  facet normal 0.156486 0.98768 -0
    outer loop
      vertex 9.77254 52.3776 400
      vertex 9 52.5 410
      vertex 9.77254 52.3776 410
    endloop
  endfacet
  facet normal 0.156486 0.98768 0
    outer loop
      vertex 9 52.5 410
      vertex 9.77254 52.3776 400
      vertex 9 52.5 400
    endloop
  endfacet
  facet normal -0.891027 0.453951 0
    outer loop
      vertex 6.62236 50.7725 400
      vertex 6.97746 51.4695 410
      vertex 6.97746 51.4695 400
    endloop
  endfacet
  facet normal -0.891027 0.453951 0
    outer loop
      vertex 6.97746 51.4695 410
      vertex 6.62236 50.7725 400
      vertex 6.62236 50.7725 410
    endloop
  endfacet
  facet normal -0.987687 0.156444 0
    outer loop
      vertex 6.5 50 400
      vertex 6.62236 50.7725 410
      vertex 6.62236 50.7725 400
    endloop
  endfacet
  facet normal -0.987687 0.156444 0
    outer loop
      vertex 6.62236 50.7725 410
      vertex 6.5 50 400
      vertex 6.5 50 410
    endloop
  endfacet
  facet normal 0 0 1
    outer loop
      vertex 11.3776 50.7725 410
      vertex 11.3776 49.2275 410
      vertex 11.5 50 410
    endloop
  endfacet
  facet normal 0 0 1
    outer loop
      vertex 11.0225 51.4695 410
      vertex 11.3776 49.2275 410
      vertex 11.3776 50.7725 410
    endloop
  endfacet
  facet normal 0 0 1
    outer loop
      vertex 11.0225 51.4695 410
      vertex 11.0225 48.5305 410
      vertex 11.3776 49.2275 410
    endloop
  endfacet
  facet normal 0 0 1
    outer loop
      vertex 10.4695 52.0225 410
      vertex 11.0225 48.5305 410
      vertex 11.0225 51.4695 410
    endloop
  endfacet
  facet normal 0 0 1
    outer loop
      vertex 10.4695 52.0225 410
      vertex 10.4695 47.9775 410
      vertex 11.0225 48.5305 410
    endloop
  endfacet
  facet normal 0 0 1
    outer loop
      vertex 9.77254 52.3776 410
      vertex 10.4695 47.9775 410
      vertex 10.4695 52.0225 410
    endloop
  endfacet
  facet normal 0 0 1
    outer loop
      vertex 9.77254 52.3776 410
      vertex 9.77254 47.6224 410
      vertex 10.4695 47.9775 410
    endloop
  endfacet
  facet normal 0 0 1
    outer loop
      vertex 9 52.5 410
      vertex 9.77254 47.6224 410
      vertex 9.77254 52.3776 410
    endloop
  endfacet
  facet normal 0 0 1
    outer loop
      vertex 9 52.5 410
      vertex 9 47.5 410
      vertex 9.77254 47.6224 410
    endloop
  endfacet
  facet normal -0 0 1
    outer loop
      vertex 8.22746 52.3776 410
      vertex 9 47.5 410
      vertex 9 52.5 410
    endloop
  endfacet
  facet normal 0 0 1
    outer loop
      vertex 8.22746 52.3776 410
      vertex 8.22746 47.6224 410
      vertex 9 47.5 410
    endloop
  endfacet
  facet normal -0 0 1
    outer loop
      vertex 7.53054 52.0225 410
      vertex 8.22746 47.6224 410
      vertex 8.22746 52.3776 410
    endloop
  endfacet
  facet normal 0 0 1
    outer loop
      vertex 7.53054 52.0225 410
      vertex 7.53054 47.9775 410
      vertex 8.22746 47.6224 410
    endloop
  endfacet
  facet normal -0 0 1
    outer loop
      vertex 6.97746 51.4695 410
      vertex 7.53054 47.9775 410
      vertex 7.53054 52.0225 410
    endloop
  endfacet
  facet normal 0 0 1
    outer loop
      vertex 6.97746 51.4695 410
      vertex 6.97746 48.5305 410
      vertex 7.53054 47.9775 410
    endloop
  endfacet
  facet normal -0 0 1
    outer loop
      vertex 6.62236 50.7725 410
      vertex 6.97746 48.5305 410
      vertex 6.97746 51.4695 410
    endloop
  endfacet
  facet normal 0 0 1
    outer loop
      vertex 6.62236 50.7725 410
      vertex 6.62236 49.2275 410
      vertex 6.97746 48.5305 410
    endloop
  endfacet
  facet normal 0 -0 1
    outer loop
      vertex 6.62236 49.2275 410
      vertex 6.62236 50.7725 410
      vertex 6.5 50 410
    endloop
  endfacet
  facet normal -0.453992 0.891006 0
    outer loop
      vertex 8.22746 52.3776 400
      vertex 7.53054 52.0225 410
      vertex 8.22746 52.3776 410
    endloop
  endfacet
  facet normal -0.453992 0.891006 0
    outer loop
      vertex 7.53054 52.0225 410
      vertex 8.22746 52.3776 400
      vertex 7.53054 52.0225 400
    endloop
  endfacet
  facet normal 0.987679 -0.156494 0
    outer loop
      vertex 11.3776 49.2275 410
      vertex 11.5 50 400
      vertex 11.5 50 410
    endloop
  endfacet
  facet normal 0.987679 -0.156494 0
    outer loop
      vertex 11.5 50 400
      vertex 11.3776 49.2275 410
      vertex 11.3776 49.2275 400
    endloop
  endfacet
  facet normal -0.156486 -0.98768 0
    outer loop
      vertex 8.22746 47.6224 400
      vertex 9 47.5 410
      vertex 8.22746 47.6224 410
    endloop
  endfacet
  facet normal -0.156486 -0.98768 -0
    outer loop
      vertex 9 47.5 410
      vertex 8.22746 47.6224 400
      vertex 9 47.5 400
    endloop
  endfacet
  facet normal -0.891027 -0.453951 0
    outer loop
      vertex 6.97746 48.5305 400
      vertex 6.62236 49.2275 410
      vertex 6.62236 49.2275 400
    endloop
  endfacet
  facet normal -0.891027 -0.453951 0
    outer loop
      vertex 6.62236 49.2275 410
      vertex 6.97746 48.5305 400
      vertex 6.97746 48.5305 410
    endloop
  endfacet
  facet normal 0.707107 0.707107 -0
    outer loop
      vertex 11.0225 51.4695 400
      vertex 10.4695 52.0225 410
      vertex 11.0225 51.4695 410
    endloop
  endfacet
  facet normal 0.707107 0.707107 0
    outer loop
      vertex 10.4695 52.0225 410
      vertex 11.0225 51.4695 400
      vertex 10.4695 52.0225 400
    endloop
  endfacet
  facet normal -0.987687 -0.156444 0
    outer loop
      vertex 6.62236 49.2275 400
      vertex 6.5 50 410
      vertex 6.5 50 400
    endloop
  endfacet
  facet normal -0.987687 -0.156444 0
    outer loop
      vertex 6.5 50 410
      vertex 6.62236 49.2275 400
      vertex 6.62236 49.2275 410
    endloop
  endfacet
  facet normal -0.707056 0.707158 0
    outer loop
      vertex 7.53054 52.0225 400
      vertex 6.97746 51.4695 410
      vertex 7.53054 52.0225 410
    endloop
  endfacet
  facet normal -0.707056 0.707158 0
    outer loop
      vertex 6.97746 51.4695 410
      vertex 7.53054 52.0225 400
      vertex 6.97746 51.4695 400
    endloop
  endfacet
  facet normal 0.707107 -0.707107 0
    outer loop
      vertex 10.4695 47.9775 410
      vertex 11.0225 48.5305 400
      vertex 11.0225 48.5305 410
    endloop
  endfacet
  facet normal 0.707107 -0.707107 0
    outer loop
      vertex 11.0225 48.5305 400
      vertex 10.4695 47.9775 410
      vertex 10.4695 47.9775 400
    endloop
  endfacet
  facet normal 0.891027 -0.453951 0
    outer loop
      vertex 11.0225 48.5305 410
      vertex 11.3776 49.2275 400
      vertex 11.3776 49.2275 410
    endloop
  endfacet
  facet normal 0.891027 -0.453951 0
    outer loop
      vertex 11.3776 49.2275 400
      vertex 11.0225 48.5305 410
      vertex 11.0225 48.5305 400
    endloop
  endfacet
  facet normal -0.707056 -0.707158 0
    outer loop
      vertex 7.53054 47.9775 400
      vertex 6.97746 48.5305 410
      vertex 6.97746 48.5305 400
    endloop
  endfacet
  facet normal -0.707056 -0.707158 0
    outer loop
      vertex 6.97746 48.5305 410
      vertex 7.53054 47.9775 400
      vertex 7.53054 47.9775 410
    endloop
  endfacet
  facet normal -1 0 0
    outer loop
      vertex 582 18 0
      vertex 582 782 382
      vertex 582 782 0
    endloop
  endfacet
  facet normal -1 -0 0
    outer loop
      vertex 582 782 382
      vertex 582 18 0
      vertex 582 18 382
    endloop
  endfacet
  facet normal 1 -0 0
    outer loop
      vertex 600 0 400
      vertex 600 800 0
      vertex 600 800 400
    endloop
  endfacet
  facet normal 1 0 0
    outer loop
      vertex 600 800 0
      vertex 600 0 400
      vertex 600 0 0
    endloop
  endfacet
  facet normal 0.987758 0.155995 0
    outer loop
      vertex 593.5 50 410
      vertex 593.378 50.7725 400
      vertex 593.378 50.7725 410
    endloop
  endfacet
  facet normal 0.987758 0.155995 0
    outer loop
      vertex 593.378 50.7725 400
      vertex 593.5 50 410
      vertex 593.5 50 400
    endloop
  endfacet
  facet normal -0.156396 0.987694 0
    outer loop
      vertex 591 52.5 400
      vertex 590.227 52.3776 410
      vertex 591 52.5 410
    endloop
  endfacet
  facet normal -0.156396 0.987694 0
    outer loop
      vertex 590.227 52.3776 410
      vertex 591 52.5 400
      vertex 590.227 52.3776 400
    endloop
  endfacet
  facet normal 0.454468 -0.890763 0
    outer loop
      vertex 591.773 47.6224 400
      vertex 592.469 47.9775 410
      vertex 591.773 47.6224 410
    endloop
  endfacet
  facet normal 0.454468 -0.890763 0
    outer loop
      vertex 592.469 47.9775 410
      vertex 591.773 47.6224 400
      vertex 592.469 47.9775 400
    endloop
  endfacet
  facet normal -0.454468 -0.890763 0
    outer loop
      vertex 589.531 47.9775 400
      vertex 590.227 47.6224 410
      vertex 589.531 47.9775 410
    endloop
  endfacet
  facet normal -0.454468 -0.890763 -0
    outer loop
      vertex 590.227 47.6224 410
      vertex 589.531 47.9775 400
      vertex 590.227 47.6224 400
    endloop
  endfacet
  facet normal 0.454468 0.890763 -0
    outer loop
      vertex 592.469 52.0225 400
      vertex 591.773 52.3776 410
      vertex 592.469 52.0225 410
    endloop
  endfacet
  facet normal 0.454468 0.890763 0
    outer loop
      vertex 591.773 52.3776 410
      vertex 592.469 52.0225 400
      vertex 591.773 52.3776 400
    endloop
  endfacet
  facet normal 0.891079 0.453849 0
    outer loop
      vertex 593.378 50.7725 410
      vertex 593.023 51.4695 400
      vertex 593.023 51.4695 410
    endloop
  endfacet
  facet normal 0.891079 0.453849 0
    outer loop
      vertex 593.023 51.4695 400
      vertex 593.378 50.7725 410
      vertex 593.378 50.7725 400
    endloop
  endfacet
  facet normal 0.156396 0.987694 -0
    outer loop
      vertex 591.773 52.3776 400
      vertex 591 52.5 410
      vertex 591.773 52.3776 410
    endloop
  endfacet
  facet normal 0.156396 0.987694 0
    outer loop
      vertex 591 52.5 410
      vertex 591.773 52.3776 400
      vertex 591 52.5 400
    endloop
  endfacet
  facet normal -0.891079 0.453849 0
    outer loop
      vertex 588.622 50.7725 400
      vertex 588.977 51.4695 410
      vertex 588.977 51.4695 400
    endloop
  endfacet
  facet normal -0.891079 0.453849 0
    outer loop
      vertex 588.977 51.4695 410
      vertex 588.622 50.7725 400
      vertex 588.622 50.7725 410
    endloop
  endfacet
  facet normal -0.987758 0.155995 0
    outer loop
      vertex 588.5 50 400
      vertex 588.622 50.7725 410
      vertex 588.622 50.7725 400
    endloop
  endfacet
  facet normal -0.987758 0.155995 0
    outer loop
      vertex 588.622 50.7725 410
      vertex 588.5 50 400
      vertex 588.5 50 410
    endloop
  endfacet
  facet normal 0 0 1
    outer loop
      vertex 593.378 50.7725 410
      vertex 593.378 49.2275 410
      vertex 593.5 50 410
    endloop
  endfacet
  facet normal 0 0 1
    outer loop
      vertex 593.023 51.4695 410
      vertex 593.378 49.2275 410
      vertex 593.378 50.7725 410
    endloop
  endfacet
  facet normal 0 0 1
    outer loop
      vertex 593.023 51.4695 410
      vertex 593.023 48.5305 410
      vertex 593.378 49.2275 410
    endloop
  endfacet
  facet normal 0 0 1
    outer loop
      vertex 592.469 52.0225 410
      vertex 593.023 48.5305 410
      vertex 593.023 51.4695 410
    endloop
  endfacet
  facet normal 0 0 1
    outer loop
      vertex 592.469 52.0225 410
      vertex 592.469 47.9775 410
      vertex 593.023 48.5305 410
    endloop
  endfacet
  facet normal 0 0 1
    outer loop
      vertex 591.773 52.3776 410
      vertex 592.469 47.9775 410
      vertex 592.469 52.0225 410
    endloop
  endfacet
  facet normal 0 0 1
    outer loop
      vertex 591.773 52.3776 410
      vertex 591.773 47.6224 410
      vertex 592.469 47.9775 410
    endloop
  endfacet
  facet normal 0 0 1
    outer loop
      vertex 591 52.5 410
      vertex 591.773 47.6224 410
      vertex 591.773 52.3776 410
    endloop
  endfacet
  facet normal 0 0 1
    outer loop
      vertex 591 52.5 410
      vertex 591 47.5 410
      vertex 591.773 47.6224 410
    endloop
  endfacet
  facet normal -0 0 1
    outer loop
      vertex 590.227 52.3776 410
      vertex 591 47.5 410
      vertex 591 52.5 410
    endloop
  endfacet
  facet normal 0 0 1
    outer loop
      vertex 590.227 52.3776 410
      vertex 590.227 47.6224 410
      vertex 591 47.5 410
    endloop
  endfacet
  facet normal -0 0 1
    outer loop
      vertex 589.531 52.0225 410
      vertex 590.227 47.6224 410
      vertex 590.227 52.3776 410
    endloop
  endfacet
  facet normal 0 0 1
    outer loop
      vertex 589.531 52.0225 410
      vertex 589.531 47.9775 410
      vertex 590.227 47.6224 410
    endloop
  endfacet
  facet normal -0 0 1
    outer loop
      vertex 588.977 51.4695 410
      vertex 589.531 47.9775 410
      vertex 589.531 52.0225 410
    endloop
  endfacet
  facet normal 0 0 1
    outer loop
      vertex 588.977 51.4695 410
      vertex 588.977 48.5305 410
      vertex 589.531 47.9775 410
    endloop
  endfacet
  facet normal -0 0 1
    outer loop
      vertex 588.622 50.7725 410
      vertex 588.977 48.5305 410
      vertex 588.977 51.4695 410
    endloop
  endfacet
  facet normal 0 0 1
    outer loop
      vertex 588.622 50.7725 410
      vertex 588.622 49.2275 410
      vertex 588.977 48.5305 410
    endloop
  endfacet
  facet normal 0 -0 1
    outer loop
      vertex 588.622 49.2275 410
      vertex 588.622 50.7725 410
      vertex 588.5 50 410
    endloop
  endfacet
  facet normal -0.454468 0.890763 0
    outer loop
      vertex 590.227 52.3776 400
      vertex 589.531 52.0225 410
      vertex 590.227 52.3776 410
    endloop
  endfacet
  facet normal -0.454468 0.890763 0
    outer loop
      vertex 589.531 52.0225 410
      vertex 590.227 52.3776 400
      vertex 589.531 52.0225 400
    endloop
  endfacet
  facet normal 0.987758 -0.155995 0
    outer loop
      vertex 593.378 49.2275 410
      vertex 593.5 50 400
      vertex 593.5 50 410
    endloop
  endfacet
  facet normal 0.987758 -0.155995 0
    outer loop
      vertex 593.5 50 400
      vertex 593.378 49.2275 410
      vertex 593.378 49.2275 400
    endloop
  endfacet
  facet normal -0.156396 -0.987694 0
    outer loop
      vertex 590.227 47.6224 400
      vertex 591 47.5 410
      vertex 590.227 47.6224 410
    endloop
  endfacet
  facet normal -0.156396 -0.987694 -0
    outer loop
      vertex 591 47.5 410
      vertex 590.227 47.6224 400
      vertex 591 47.5 400
    endloop
  endfacet
  facet normal -0.891079 -0.453849 0
    outer loop
      vertex 588.977 48.5305 400
      vertex 588.622 49.2275 410
      vertex 588.622 49.2275 400
    endloop
  endfacet
  facet normal -0.891079 -0.453849 0
    outer loop
      vertex 588.622 49.2275 410
      vertex 588.977 48.5305 400
      vertex 588.977 48.5305 410
    endloop
  endfacet
  facet normal 0.706468 0.707745 0
    outer loop
      vertex 593.023 51.4695 410
      vertex 592.469 52.0225 400
      vertex 592.469 52.0225 410
    endloop
  endfacet
  facet normal 0.706468 0.707745 0
    outer loop
      vertex 592.469 52.0225 400
      vertex 593.023 51.4695 410
      vertex 593.023 51.4695 400
    endloop
  endfacet
  facet normal -0.987758 -0.155995 0
    outer loop
      vertex 588.622 49.2275 400
      vertex 588.5 50 410
      vertex 588.5 50 400
    endloop
  endfacet
  facet normal -0.987758 -0.155995 0
    outer loop
      vertex 588.5 50 410
      vertex 588.622 49.2275 400
      vertex 588.622 49.2275 410
    endloop
  endfacet
  facet normal -0.706468 0.707745 0
    outer loop
      vertex 588.977 51.4695 400
      vertex 589.531 52.0225 410
      vertex 589.531 52.0225 400
    endloop
  endfacet
  facet normal -0.706468 0.707745 0
    outer loop
      vertex 589.531 52.0225 410
      vertex 588.977 51.4695 400
      vertex 588.977 51.4695 410
    endloop
  endfacet
  facet normal 0.706468 -0.707745 0
    outer loop
      vertex 592.469 47.9775 410
      vertex 593.023 48.5305 400
      vertex 593.023 48.5305 410
    endloop
  endfacet
  facet normal 0.706468 -0.707745 0
    outer loop
      vertex 593.023 48.5305 400
      vertex 592.469 47.9775 410
      vertex 592.469 47.9775 400
    endloop
  endfacet
  facet normal 0.891079 -0.453849 0
    outer loop
      vertex 593.023 48.5305 410
      vertex 593.378 49.2275 400
      vertex 593.378 49.2275 410
    endloop
  endfacet
  facet normal 0.891079 -0.453849 0
    outer loop
      vertex 593.378 49.2275 400
      vertex 593.023 48.5305 410
      vertex 593.023 48.5305 400
    endloop
  endfacet
  facet normal 0.156396 -0.987694 0
    outer loop
      vertex 591 47.5 400
      vertex 591.773 47.6224 410
      vertex 591 47.5 410
    endloop
  endfacet
  facet normal 0.156396 -0.987694 0
    outer loop
      vertex 591.773 47.6224 410
      vertex 591 47.5 400
      vertex 591.773 47.6224 400
    endloop
  endfacet
  facet normal -0.706468 -0.707745 0
    outer loop
      vertex 589.531 47.9775 400
      vertex 588.977 48.5305 410
      vertex 588.977 48.5305 400
    endloop
  endfacet
  facet normal -0.706468 -0.707745 0
    outer loop
      vertex 588.977 48.5305 410
      vertex 589.531 47.9775 400
      vertex 589.531 47.9775 410
    endloop
  endfacet
  facet normal 0 -1 0
    outer loop
      vertex 18 782 0
      vertex 582 782 382
      vertex 18 782 382
    endloop
  endfacet
  facet normal 0 -1 -0
    outer loop
      vertex 582 782 382
      vertex 18 782 0
      vertex 582 782 0
    endloop
  endfacet
  facet normal 0.987659 0.156619 0
    outer loop
      vertex 304 800 212
      vertex 303.804 801.236 200
      vertex 303.804 801.236 212
    endloop
  endfacet
  facet normal 0.987659 0.156619 0
    outer loop
      vertex 303.804 801.236 200
      vertex 304 800 212
      vertex 304 800 200
    endloop
  endfacet
  facet normal 0.156619 0.987659 -0
    outer loop
      vertex 301.236 803.804 200
      vertex 300 804 212
      vertex 301.236 803.804 212
    endloop
  endfacet
  facet normal 0.156619 0.987659 0
    outer loop
      vertex 300 804 212
      vertex 301.236 803.804 200
      vertex 300 804 200
    endloop
  endfacet
  facet normal 0.891046 0.453914 0
    outer loop
      vertex 303.804 801.236 212
      vertex 303.236 802.351 200
      vertex 303.236 802.351 212
    endloop
  endfacet
  facet normal 0.891046 0.453914 0
    outer loop
      vertex 303.236 802.351 200
      vertex 303.804 801.236 212
      vertex 303.804 801.236 200
    endloop
  endfacet
  facet normal -0.156619 0.987659 0
    outer loop
      vertex 300 804 200
      vertex 298.764 803.804 212
      vertex 300 804 212
    endloop
  endfacet
  facet normal -0.156619 0.987659 0
    outer loop
      vertex 298.764 803.804 212
      vertex 300 804 200
      vertex 298.764 803.804 200
    endloop
  endfacet
  facet normal 0 0 -1
    outer loop
      vertex 304 800 200
      vertex 303.236 802.351 200
      vertex 303.804 801.236 200
    endloop
  endfacet
  facet normal 0 0 -1
    outer loop
      vertex 304 800 200
      vertex 302.351 803.236 200
      vertex 303.236 802.351 200
    endloop
  endfacet
  facet normal 0 0 -1
    outer loop
      vertex 304 800 200
      vertex 301.236 803.804 200
      vertex 302.351 803.236 200
    endloop
  endfacet
  facet normal 0 0 -1
    outer loop
      vertex 304 800 200
      vertex 300 804 200
      vertex 301.236 803.804 200
    endloop
  endfacet
  facet normal 0 0 -1
    outer loop
      vertex 304 800 200
      vertex 298.764 803.804 200
      vertex 300 804 200
    endloop
  endfacet
  facet normal 0 0 -1
    outer loop
      vertex 304 800 200
      vertex 297.649 803.236 200
      vertex 298.764 803.804 200
    endloop
  endfacet
  facet normal 0 0 -1
    outer loop
      vertex 304 800 200
      vertex 296.764 802.351 200
      vertex 297.649 803.236 200
    endloop
  endfacet
  facet normal 0 0 -1
    outer loop
      vertex 304 800 200
      vertex 296.196 801.236 200
      vertex 296.764 802.351 200
    endloop
  endfacet
  facet normal 0 -0 -1
    outer loop
      vertex 296.196 801.236 200
      vertex 304 800 200
      vertex 296 800 200
    endloop
  endfacet
  facet normal -0.453914 0.891046 0
    outer loop
      vertex 298.764 803.804 200
      vertex 297.649 803.236 212
      vertex 298.764 803.804 212
    endloop
  endfacet
  facet normal -0.453914 0.891046 0
    outer loop
      vertex 297.649 803.236 212
      vertex 298.764 803.804 200
      vertex 297.649 803.236 200
    endloop
  endfacet
  facet normal 0.707107 0.707107 0
    outer loop
      vertex 303.236 802.351 212
      vertex 302.351 803.236 200
      vertex 302.351 803.236 212
    endloop
  endfacet
  facet normal 0.707107 0.707107 0
    outer loop
      vertex 302.351 803.236 200
      vertex 303.236 802.351 212
      vertex 303.236 802.351 200
    endloop
  endfacet
  facet normal 0.453914 0.891046 -0
    outer loop
      vertex 302.351 803.236 200
      vertex 301.236 803.804 212
      vertex 302.351 803.236 212
    endloop
  endfacet
  facet normal 0.453914 0.891046 0
    outer loop
      vertex 301.236 803.804 212
      vertex 302.351 803.236 200
      vertex 301.236 803.804 200
    endloop
  endfacet
  facet normal 0 0 1
    outer loop
      vertex 303.236 802.351 212
      vertex 304 800 212
      vertex 303.804 801.236 212
    endloop
  endfacet
  facet normal 0 0 1
    outer loop
      vertex 302.351 803.236 212
      vertex 304 800 212
      vertex 303.236 802.351 212
    endloop
  endfacet
  facet normal 0 0 1
    outer loop
      vertex 301.236 803.804 212
      vertex 304 800 212
      vertex 302.351 803.236 212
    endloop
  endfacet
  facet normal 0 0 1
    outer loop
      vertex 300 804 212
      vertex 304 800 212
      vertex 301.236 803.804 212
    endloop
  endfacet
  facet normal -0 0 1
    outer loop
      vertex 298.764 803.804 212
      vertex 304 800 212
      vertex 300 804 212
    endloop
  endfacet
  facet normal -0 0 1
    outer loop
      vertex 297.649 803.236 212
      vertex 304 800 212
      vertex 298.764 803.804 212
    endloop
  endfacet
  facet normal -0 0 1
    outer loop
      vertex 296.764 802.351 212
      vertex 304 800 212
      vertex 297.649 803.236 212
    endloop
  endfacet
  facet normal -0 0 1
    outer loop
      vertex 296.196 801.236 212
      vertex 304 800 212
      vertex 296.764 802.351 212
    endloop
  endfacet
  facet normal 0 0 1
    outer loop
      vertex 304 800 212
      vertex 296.196 801.236 212
      vertex 296 800 212
    endloop
  endfacet
  facet normal -0.987659 0.156619 0
    outer loop
      vertex 296 800 200
      vertex 296.196 801.236 212
      vertex 296.196 801.236 200
    endloop
  endfacet
  facet normal -0.987659 0.156619 0
    outer loop
      vertex 296.196 801.236 212
      vertex 296 800 200
      vertex 296 800 212
    endloop
  endfacet
  facet normal -0.707107 0.707107 0
    outer loop
      vertex 296.764 802.351 200
      vertex 297.649 803.236 212
      vertex 297.649 803.236 200
    endloop
  endfacet
  facet normal -0.707107 0.707107 0
    outer loop
      vertex 297.649 803.236 212
      vertex 296.764 802.351 200
      vertex 296.764 802.351 212
    endloop
  endfacet
  facet normal -0.891046 0.453914 0
    outer loop
      vertex 296.196 801.236 200
      vertex 296.764 802.351 212
      vertex 296.764 802.351 200
    endloop
  endfacet
  facet normal -0.891046 0.453914 0
    outer loop
      vertex 296.764 802.351 212
      vertex 296.196 801.236 200
      vertex 296.196 801.236 212
    endloop
  endfacet
  facet normal 0 1 -0
    outer loop
      vertex 582 18 0
      vertex 18 18 382
      vertex 582 18 382
    endloop
  endfacet
  facet normal 0 1 0
    outer loop
      vertex 18 18 382
      vertex 582 18 0
      vertex 18 18 0
    endloop
  endfacet
  facet normal -0.98766 -0.15661 0
    outer loop
      vertex 296.196 -1.23607 200
      vertex 296 0 212
      vertex 296 0 200
    endloop
  endfacet
  facet normal -0.98766 -0.15661 0
    outer loop
      vertex 296 0 212
      vertex 296.196 -1.23607 200
      vertex 296.196 -1.23607 212
    endloop
  endfacet
  facet normal 0.15644 -0.987687 0
    outer loop
      vertex 300 -4 200
      vertex 301.236 -3.80423 212
      vertex 300 -4 212
    endloop
  endfacet
  facet normal 0.15644 -0.987687 0
    outer loop
      vertex 301.236 -3.80423 212
      vertex 300 -4 200
      vertex 301.236 -3.80423 200
    endloop
  endfacet
  facet normal 0.454015 -0.890994 0
    outer loop
      vertex 301.236 -3.80423 200
      vertex 302.351 -3.23607 212
      vertex 301.236 -3.80423 212
    endloop
  endfacet
  facet normal 0.454015 -0.890994 0
    outer loop
      vertex 302.351 -3.23607 212
      vertex 301.236 -3.80423 200
      vertex 302.351 -3.23607 200
    endloop
  endfacet
  facet normal 0 0 -1
    outer loop
      vertex 303.236 -2.35114 200
      vertex 304 0 200
      vertex 303.804 -1.23607 200
    endloop
  endfacet
  facet normal 0 0 -1
    outer loop
      vertex 302.351 -3.23607 200
      vertex 304 0 200
      vertex 303.236 -2.35114 200
    endloop
  endfacet
  facet normal 0 0 -1
    outer loop
      vertex 301.236 -3.80423 200
      vertex 304 0 200
      vertex 302.351 -3.23607 200
    endloop
  endfacet
  facet normal 0 0 -1
    outer loop
      vertex 300 -4 200
      vertex 304 0 200
      vertex 301.236 -3.80423 200
    endloop
  endfacet
  facet normal 0 0 -1
    outer loop
      vertex 298.764 -3.80423 200
      vertex 304 0 200
      vertex 300 -4 200
    endloop
  endfacet
  facet normal 0 0 -1
    outer loop
      vertex 297.649 -3.23607 200
      vertex 304 0 200
      vertex 298.764 -3.80423 200
    endloop
  endfacet
  facet normal 0 0 -1
    outer loop
      vertex 296.764 -2.35114 200
      vertex 304 0 200
      vertex 297.649 -3.23607 200
    endloop
  endfacet
  facet normal 0 0 -1
    outer loop
      vertex 296.196 -1.23607 200
      vertex 304 0 200
      vertex 296.764 -2.35114 200
    endloop
  endfacet
  facet normal -0 0 -1
    outer loop
      vertex 304 0 200
      vertex 296.196 -1.23607 200
      vertex 296 0 200
    endloop
  endfacet
  facet normal 0 0 1
    outer loop
      vertex 304 0 212
      vertex 303.236 -2.35114 212
      vertex 303.804 -1.23607 212
    endloop
  endfacet
  facet normal 0 0 1
    outer loop
      vertex 304 0 212
      vertex 302.351 -3.23607 212
      vertex 303.236 -2.35114 212
    endloop
  endfacet
  facet normal 0 0 1
    outer loop
      vertex 304 0 212
      vertex 301.236 -3.80423 212
      vertex 302.351 -3.23607 212
    endloop
  endfacet
  facet normal 0 0 1
    outer loop
      vertex 304 0 212
      vertex 300 -4 212
      vertex 301.236 -3.80423 212
    endloop
  endfacet
  facet normal 0 0 1
    outer loop
      vertex 304 0 212
      vertex 298.764 -3.80423 212
      vertex 300 -4 212
    endloop
  endfacet
  facet normal 0 0 1
    outer loop
      vertex 304 0 212
      vertex 297.649 -3.23607 212
      vertex 298.764 -3.80423 212
    endloop
  endfacet
  facet normal 0 0 1
    outer loop
      vertex 304 0 212
      vertex 296.764 -2.35114 212
      vertex 297.649 -3.23607 212
    endloop
  endfacet
  facet normal 0 0 1
    outer loop
      vertex 304 0 212
      vertex 296.196 -1.23607 212
      vertex 296.764 -2.35114 212
    endloop
  endfacet
  facet normal 0 -0 1
    outer loop
      vertex 296.196 -1.23607 212
      vertex 304 0 212
      vertex 296 0 212
    endloop
  endfacet
  facet normal -0.891057 -0.453891 0
    outer loop
      vertex 296.764 -2.35114 200
      vertex 296.196 -1.23607 212
      vertex 296.196 -1.23607 200
    endloop
  endfacet
  facet normal -0.891057 -0.453891 0
    outer loop
      vertex 296.196 -1.23607 212
      vertex 296.764 -2.35114 200
      vertex 296.764 -2.35114 212
    endloop
  endfacet
  facet normal 0.707079 -0.707135 0
    outer loop
      vertex 302.351 -3.23607 212
      vertex 303.236 -2.35114 200
      vertex 303.236 -2.35114 212
    endloop
  endfacet
  facet normal 0.707079 -0.707135 0
    outer loop
      vertex 303.236 -2.35114 200
      vertex 302.351 -3.23607 212
      vertex 302.351 -3.23607 200
    endloop
  endfacet
  facet normal 0.891057 -0.453891 0
    outer loop
      vertex 303.236 -2.35114 212
      vertex 303.804 -1.23607 200
      vertex 303.804 -1.23607 212
    endloop
  endfacet
  facet normal 0.891057 -0.453891 0
    outer loop
      vertex 303.804 -1.23607 200
      vertex 303.236 -2.35114 212
      vertex 303.236 -2.35114 200
    endloop
  endfacet
  facet normal -0.15644 -0.987687 0
    outer loop
      vertex 298.764 -3.80423 200
      vertex 300 -4 212
      vertex 298.764 -3.80423 212
    endloop
  endfacet
  facet normal -0.15644 -0.987687 -0
    outer loop
      vertex 300 -4 212
      vertex 298.764 -3.80423 200
      vertex 300 -4 200
    endloop
  endfacet
  facet normal -0.707079 -0.707135 0
    outer loop
      vertex 296.764 -2.35114 200
      vertex 297.649 -3.23607 212
      vertex 296.764 -2.35114 212
    endloop
  endfacet
  facet normal -0.707079 -0.707135 -0
    outer loop
      vertex 297.649 -3.23607 212
      vertex 296.764 -2.35114 200
      vertex 297.649 -3.23607 200
    endloop
  endfacet
  facet normal 0.98766 -0.15661 0
    outer loop
      vertex 303.804 -1.23607 212
      vertex 304 0 200
      vertex 304 0 212
    endloop
  endfacet
  facet normal 0.98766 -0.15661 0
    outer loop
      vertex 304 0 200
      vertex 303.804 -1.23607 212
      vertex 303.804 -1.23607 200
    endloop
  endfacet
  facet normal -0.454015 -0.890994 0
    outer loop
      vertex 297.649 -3.23607 200
      vertex 298.764 -3.80423 212
      vertex 297.649 -3.23607 212
    endloop
  endfacet
  facet normal -0.454015 -0.890994 -0
    outer loop
      vertex 298.764 -3.80423 212
      vertex 297.649 -3.23607 200
      vertex 298.764 -3.80423 200
    endloop
  endfacet
  facet normal 0 0 -1
    outer loop
      vertex 18 18 382
      vertex 582 782 382
      vertex 582 18 382
    endloop
  endfacet
  facet normal -0 0 -1
    outer loop
      vertex 582 782 382
      vertex 18 18 382
      vertex 18 782 382
    endloop
  endfacet
endsolid OpenSCAD_Model
